<?xml version="1.0" encoding="utf-8"?>
<!-- Generator: Adobe Illustrator 17.0.0, SVG Export Plug-In . SVG Version: 6.00 Build 0)  -->
<!DOCTYPE svg PUBLIC "-//W3C//DTD SVG 1.1//EN" "http://www.w3.org/Graphics/SVG/1.1/DTD/svg11.dtd">
<svg version="1.1" id="Layer_1" xmlns="http://www.w3.org/2000/svg" xmlns:xlink="http://www.w3.org/1999/xlink" x="0px" y="0px"
	 width="300px" height="300px" viewBox="0 0 300 300" enable-background="new 0 0 300 300" xml:space="preserve">
<g>
	<path fill="#323232" d="M91.477,165.117c-4.18-14.029-8.077-27.393-12.145-40.705c-8.214-26.877-16.701-53.673-24.649-80.629
		c-1.74-5.902-4.219-8.484-10.549-7.851c-5.638,0.564-11.382,0.143-17.077,0.024c-5.09-0.106-10.247-1.052-10.344-7.374
		c-0.097-6.325,4.897-7.539,10.091-7.562c9.295-0.042,18.591,0.072,27.886,0.033c5.525-0.023,8.777,2.332,10.361,7.865
		c3.209,11.209,7.369,22.161,10.235,33.448c1.727,6.803,4.889,8.9,11.835,8.869c60.27-0.268,120.542-0.172,180.813-0.163
		c15.07,0.002,16.631,1.934,12.366,16.052c-8.386,27.753-17.084,55.413-25.309,83.213c-2.253,7.616-6.392,10.183-14.325,10.132
		c-49.474-0.318-98.952-0.164-148.428-0.153c-2.695,0.001-5.891-0.776-7.962,0.392c-2.746,1.547-6.191,4.52-6.411,7.127
		c-0.218,2.585,2.608,6.556,5.169,7.946c2.884,1.565,6.964,1.198,10.524,1.202c48.577,0.062,97.166,0.681,145.725-0.248
		c21.411-0.41,34.199,10.333,43.608,27.213c1.376,2.469-1.189,7.134-1.93,10.783c-3.309-1.01-7.076-1.354-9.795-3.223
		c-2.563-1.761-4.177-5.029-5.938-7.806c-5.856-9.235-14.25-12.854-25.061-12.818c-51.275,0.174-102.551,0.159-153.826,0.016
		c-16.652-0.046-26.991-13.367-22.632-28.803c2.396-8.485,8.061-13.799,16.852-15.44C83.733,166.065,86.958,165.745,91.477,165.117z
		 M265.395,85.933c-61.661,0-121.599,0-182.305,0c0.988,3.865,1.601,6.744,2.459,9.547c6.208,20.284,12.88,40.438,18.488,60.885
		c2.064,7.525,5.528,9.886,13,9.828c35.955-0.279,71.913-0.117,107.869-0.106c16.013,0.005,16.003,0.007,20.77-15.819
		c0.862-2.862,1.889-5.675,2.76-8.535C253.99,123.508,259.52,105.275,265.395,85.933z"/>
	<path fill="#323232" d="M121.402,218.796c16.803-0.033,29.904,13.27,29.824,30.284c-0.075,16.111-13.826,29.961-29.696,29.909
		c-15.815-0.052-29.813-13.985-29.983-29.844C91.367,232.35,104.668,218.829,121.402,218.796z M136.983,249.216
		c0.337-8.186-6.619-15.712-14.914-16.135c-8.102-0.413-15.532,6.625-15.888,15.049c-0.366,8.67,6.065,15.533,14.767,15.76
		C129.67,264.117,136.632,257.746,136.983,249.216z"/>
	<path fill="#323232" d="M259.098,249.281c-0.106,16.047-13.683,29.426-29.971,29.535c-15.429,0.103-30.116-14.457-30.123-29.863
		c-0.008-16.378,14.012-30.237,30.465-30.114C246.389,218.964,259.212,232.14,259.098,249.281z M229.732,263.916
		c8.478-0.185,15.008-7.049,14.943-15.706c-0.063-8.423-7.186-15.144-15.745-14.858c-8.659,0.29-15.113,7.104-14.869,15.699
		C214.304,257.639,221.12,264.104,229.732,263.916z"/>
</g>
</svg>
