<?xml version="1.0" encoding="utf-8"?>
<!-- Generator: Adobe Illustrator 17.0.0, SVG Export Plug-In . SVG Version: 6.00 Build 0)  -->
<!DOCTYPE svg PUBLIC "-//W3C//DTD SVG 1.1//EN" "http://www.w3.org/Graphics/SVG/1.1/DTD/svg11.dtd">
<svg version="1.1" id="Layer_1" xmlns="http://www.w3.org/2000/svg" xmlns:xlink="http://www.w3.org/1999/xlink" x="0px" y="0px"
	 width="300px" height="300px" viewBox="0 0 300 300" enable-background="new 0 0 300 300" xml:space="preserve">
<g>
	<path fill="#353535" d="M272.243,151.036c-1.05,24.977-13.497,45.972-38.372,57.891c-24.801,11.884-49.014,8.757-71.172-7.805
		c-3.133-2.342-6.199-3.361-2.621-9.732c10.863-19.344,14.126-40.151,7.8-62.411c-2.308-8.121-6.698-14.33-11.064-20.784
		c-2.631-3.889-2.231-6.179,0.913-8.806c8.468-7.074,17.058-13.279,28.439-15.842c15.006-3.379,29.492-4.214,43.78,1.84
		C255.368,96.159,272.058,118.763,272.243,151.036z M208.023,117.803c6.385,1.113,7.887,5.997,9.902,10.653
		c2.708,6.257,7.215,6.64,11.579,1.247c2.15-2.657,1.785-5.56,0.601-8.381c-2.956-7.043-7.951-12.236-15.532-13.661
		c-4.989-0.938-7.694-2.439-6.612-7.967c0.481-2.455-0.917-4.414-3.326-4.519c-2.686-0.117-3.668,2.209-3.232,4.449
		c1.192,6.129-2.343,7.096-7.253,8.234c-9.857,2.284-15.57,9.55-16.433,19.397c-0.831,9.49,3.351,19.01,12.565,21.224
		c11.292,2.714,12.15,9.298,11.083,18.326c-0.297,2.509-0.129,5.087-0.014,7.626c0.182,4.04-1.511,3.523-4.161,2.034
		c-4.307-2.42-5.865-6.597-7.092-10.849c-1.408-4.881-4.282-7.237-9.188-5.76c-5.071,1.526-5.845,5.609-4.811,10.242
		c2.278,10.21,9.41,15.819,18.868,18.257c4.632,1.194,7.318,2.409,6.435,7.674c-0.366,2.186,0.091,4.515,2.95,4.684
		c3.237,0.192,3.945-2.249,3.605-4.711c-0.705-5.109,1.54-6.522,6.389-7.567c11.215-2.417,18.39-10.959,19.042-21.048
		c0.716-11.063-3.383-20.549-13.252-22.637c-12.535-2.652-13.409-9.938-12.157-19.824
		C208.266,122.679,208.023,120.366,208.023,117.803z"/>
	<path fill="#353535" d="M50.374,246.081c8.061,4.754,15.974,9.443,23.91,14.094c5.895,3.454,11.841,6.82,17.722,10.297
		c3.968,2.346,7.513,5.349,4.886,10.418c-3.601,6.95-6.469,7.464-13.174,3.539c-22.429-13.134-44.905-26.189-67.299-39.382
		c-8.708-5.13-8.655-11.744-0.028-16.724c8.99-5.189,18.11-10.16,26.976-15.549c3.034-1.845,5.028-1.748,7.788,0.467
		c3.376,2.709,7.296,4.741,11.064,7.118c-3.116,3.513-8.829,3.22-11.735,8.113c2.041,0.156,3.969,0.433,5.897,0.432
		c54.76-0.018,109.52-0.064,164.279-0.106c0.637,0,1.274-0.022,1.91,0c6.861,0.239,10.859,3.435,10.536,8.413
		c-0.336,5.166-3.92,7.812-10.73,7.813c-56.034,0.01-112.069,0.001-168.103,0.04C53.14,245.065,51.797,244.374,50.374,246.081z"/>
	<path fill="#353535" d="M250.135,53.734c-13.319-7.65-26.638-15.299-39.955-22.952c-1.469-0.844-2.983-1.624-4.377-2.579
		c-4.129-2.829-5.402-6.622-2.707-10.955c2.619-4.211,6.578-5.289,10.991-2.82c8.69,4.864,17.271,9.92,25.913,14.869
		c14.348,8.216,28.763,16.315,43.043,24.646c9.492,5.537,9.36,11.861-0.152,17.45c-8.405,4.939-16.942,9.661-25.207,14.822
		c-3.999,2.497-7.118,2.554-10.75-0.624c-2.649-2.318-5.952-3.889-9.403-6.071c3.988-2.576,7.731-4.992,11.519-7.438
		c-1.591-1.976-3.16-1.31-4.568-1.31c-55.579,0.001-111.158,0.018-166.737,0.032c-7.164,0.002-10.678-2.593-10.746-7.926
		c-0.066-5.225,3.441-7.879,10.706-7.883c55.156-0.03,110.313-0.031,165.469-0.041c2.225,0,4.451,0,6.676,0
		C249.946,54.546,250.04,54.14,250.135,53.734z"/>
	<path fill="#353535" d="M207.999,167.094c0-1.268-0.25-2.599,0.051-3.792c0.662-2.626-1.907-7.353,1.502-7.563
		c4.223-0.261,8.481,2.609,9.866,7.497c1.678,5.919-1.075,11.338-6.734,14.135c-3.06,1.513-5.197,2.049-4.757-2.674
		c0.235-2.514,0.042-5.068,0.042-7.603C207.98,167.094,207.989,167.094,207.999,167.094z"/>
	<path fill="#353535" d="M201.336,127.981c0.002,1.051,0.144,2.126-0.027,3.149c-0.359,2.148,1.338,5.475-0.968,6.214
		c-2.513,0.805-5.062-1.67-6.829-3.66c-4.527-5.1-1.506-13.979,5.14-15.848c1.96-0.551,2.735-0.091,2.695,1.944
		C201.293,122.513,201.333,125.247,201.336,127.981z"/>
	<g>
		<path fill="#353535" d="M95.305,84.269c-37.859,0.153-67.556,30.173-67.42,68.152c0.135,37.559,30.382,67.173,68.524,67.092
			c36.117-0.077,66.804-30.984,66.705-67.183C163.01,114.488,132.752,84.117,95.305,84.269z M117.237,180.1
			c-6.074,6.606-13.319,9.91-21.737,9.909c-3.09,0-6.652-1.332-10.168-3.996c-3.41-2.77-5.332-5.434-6.332-7.992V154h-7.155
			l-7.352-8H79v-16.086c0-3.09-1.606-4.901-5.336-5.434c-1.705,0-3.119,0.267-3.652,0.799C69.054,123.68,68,121.762,67,119.525
			v-0.799c0-1.385,1.49-2.443,3.621-3.402c2.131-0.959,4.465-1.324,6.17-1.324h0.004c3.197,0,4.949,1.217,6.76,3.881
			C85.473,120.439,86,123.84,86,128.315V146h5.984l7.512,8H86v20.506c0,1.705,1.394,3.25,2.672,4.635
			c1.279,1.385,3.734,2.078,6.61,2.078c3.729,0,7.86-2.078,12.016-6.233c4.262-4.262,6.594-8.631,6.807-13.106l-1.871,0.16
			c-6.819,0-10.206-3.623-10.206-10.868c0-2.451,0.811-4.635,2.409-6.553c1.598-1.918,4.268-2.877,7.997-2.877
			c3.942,0,7.249,1.705,9.912,5.115c2.77,3.41,4.157,7.565,4.157,12.467C126.506,166.568,123.417,173.494,117.237,180.1z"/>
	</g>
</g>
</svg>
