<?xml version="1.0" encoding="utf-8"?>
<!-- Generator: Adobe Illustrator 17.0.0, SVG Export Plug-In . SVG Version: 6.00 Build 0)  -->
<!DOCTYPE svg PUBLIC "-//W3C//DTD SVG 1.1//EN" "http://www.w3.org/Graphics/SVG/1.1/DTD/svg11.dtd">
<svg version="1.1" id="Layer_1" xmlns="http://www.w3.org/2000/svg" xmlns:xlink="http://www.w3.org/1999/xlink" x="0px" y="0px"
	 width="300px" height="300px" viewBox="0 0 300 300" enable-background="new 0 0 300 300" xml:space="preserve">
<g>
	<g>
		<path fill="#FFFFFF" d="M9.287,162.1c0-7.628,0-15.257,0-22.885c0.081-0.867,0.17-1.734,0.241-2.602
			c0.265-3.228,0.33-6.486,0.823-9.678c1.356-8.772,3.929-17.236,7.03-25.532c4.266-11.413,9.646-22.265,16.642-32.279
			c5.515-7.893,12.148-14.798,19.018-21.486c6.024-5.864,12.373-11.337,19.476-15.889c13.54-8.676,28.167-14.839,43.702-18.871
			c6.52-1.693,13.083-3.345,19.858-3.514c6.592-0.164,13.197-0.203,19.787,0.013c6.114,0.201,12.281,0.388,18.308,1.329
			c12.198,1.906,23.825,5.86,35.018,11.074c19.788,9.216,36.638,22.227,50.438,39.144c11.553,14.162,19.961,30.017,25.354,47.48
			c2.126,6.883,4.256,13.763,4.952,20.976c0.325,3.375,0.524,6.762,0.78,10.143c0,7.525,0,15.051,0,22.576
			c-0.097,1.073-0.179,2.147-0.293,3.217c-0.324,3.063-0.45,6.165-1.026,9.181c-4.658,24.35-14.58,46.295-30.311,65.523
			c-10.738,13.125-23.48,23.919-38.158,32.424c-10.645,6.167-21.965,10.68-33.768,14.096c-6.694,1.937-13.428,3.638-20.401,3.874
			c-8.182,0.277-16.382,0.492-24.561,0.259c-6.668-0.19-13.41-0.569-19.953-1.771c-11.202-2.058-21.897-5.933-32.239-10.743
			c-19.378-9.013-35.753-21.891-49.274-38.39c-11.438-13.957-19.883-29.586-25.461-46.747c-2.274-6.996-4.231-14.082-5.116-21.41
			C9.771,168.453,9.57,165.271,9.287,162.1z M256.578,214.305c29.984-50.815,22.586-119.569-29.136-161.27
			c-46.959-37.861-116.515-36.511-161.986,6.15c-45.455,42.645-50.565,105.81-22.056,155.21c1.515-1.405,2.978-2.839,4.521-4.181
			c7.723-6.721,16.677-11.462,25.778-15.963c10.246-5.068,20.943-9.046,31.633-13.034c0.517-0.193,1.411,0.001,1.86,0.355
			c2.548,2.008,4.953,4.199,7.519,6.182c10.066,7.782,20.886,13.127,34.179,12.949c9.176-0.123,17.763-1.453,25.833-5.865
			c6.512-3.561,12.189-8.239,17.754-13.071c0.832-0.722,1.509-0.949,2.598-0.513c5.341,2.141,10.768,4.071,16.075,6.291
			C227.473,194.372,243.587,201.58,256.578,214.305z"/>
		<path fill="#323232" d="M256.578,214.305c-12.991-12.725-29.105-19.933-45.427-26.76c-5.307-2.22-10.735-4.149-16.075-6.291
			c-1.089-0.437-1.766-0.21-2.598,0.513c-5.565,4.832-11.242,9.51-17.754,13.071c-8.069,4.412-16.657,5.742-25.833,5.865
			c-13.294,0.178-24.114-5.166-34.179-12.949c-2.566-1.984-4.971-4.174-7.519-6.182c-0.45-0.354-1.344-0.548-1.86-0.355
			c-10.69,3.988-21.387,7.966-31.633,13.034c-9.101,4.502-18.055,9.242-25.778,15.963c-1.543,1.343-3.006,2.776-4.521,4.181
			c-28.509-49.4-23.399-112.565,22.056-155.21c45.471-42.66,115.027-44.011,161.986-6.15
			C279.164,94.736,286.562,163.49,256.578,214.305z M205.573,116.456c-0.286-3.392-0.266-7.094-0.955-10.658
			c-3.011-15.573-10.773-28.302-23.781-37.484c-14.071-9.933-29.747-12.8-46.126-7.658c-27.691,8.694-43.841,35.767-39.686,65.421
			c1.261,8.999,4.013,17.515,7.994,25.649c6.042,12.347,14.1,22.99,26.064,30.212c8.822,5.326,18.315,7.578,28.556,5.47
			c8.457-1.741,15.659-6.047,21.807-11.914C196.183,159.523,204.845,139.892,205.573,116.456z"/>
		<path fill="#FFFFFF" d="M205.573,116.456c-0.728,23.435-9.39,43.066-26.126,59.038c-6.148,5.867-13.351,10.174-21.807,11.914
			c-10.241,2.108-19.734-0.144-28.556-5.47c-11.963-7.222-20.022-17.865-26.064-30.212c-3.981-8.135-6.733-16.65-7.994-25.649
			c-4.156-29.653,11.995-56.727,39.686-65.421c16.379-5.142,32.055-2.275,46.126,7.658c13.008,9.183,20.77,21.912,23.781,37.484
			C205.308,109.363,205.288,113.064,205.573,116.456z"/>
	</g>
	<g>
		<path fill="#323232" d="M150,292.376c-19.217,0-37.863-3.766-55.422-11.192c-16.955-7.171-32.181-17.436-45.253-30.508
			c-13.073-13.073-23.337-28.298-30.509-45.253C11.39,187.863,7.624,169.217,7.624,150s3.766-37.863,11.192-55.422
			c7.171-16.955,17.436-32.18,30.509-45.253c13.072-13.073,28.298-23.337,45.253-30.509C112.137,11.39,130.783,7.624,150,7.624
			s37.863,3.766,55.422,11.192c16.955,7.171,32.18,17.436,45.253,30.509c13.073,13.072,23.337,28.298,30.509,45.253
			c7.427,17.559,11.192,36.205,11.192,55.422s-3.766,37.863-11.192,55.422c-7.171,16.955-17.436,32.18-30.509,45.253
			c-13.072,13.073-28.298,23.337-45.253,30.508C187.863,288.61,169.217,292.376,150,292.376z M150,26.18
			C81.725,26.18,26.18,81.725,26.18,150S81.725,273.82,150,273.82S273.82,218.275,273.82,150S218.275,26.18,150,26.18z"/>
	</g>
</g>
</svg>
