<svg xmlns="http://www.w3.org/2000/svg" id="a4fbd1e2-edc2-431c-b11d-f5395f4f8a37" data-name="Layer 1" width="836.27" height="674.20539" viewBox="0 0 836.27 674.20539"><title>fitting_pieces</title><circle cx="123" cy="428" r="123" fill="#f2f2f2"/><circle cx="143" cy="410" r="123" fill="#dfddf9"/><rect x="58" y="72" width="108" height="108" fill="#f2f2f2"/><rect x="73" y="56" width="108" height="108" fill="#dfddf9"/><path d="M415.865,254.8973h-142v-142h142Zm-140-2h138v-138h-138Z" transform="translate(-181.865 -112.8973)" fill="#e4e4e4"/><rect x="301" y="275" width="28" height="28" fill="#f2f2f2"/><rect x="307" y="268" width="28" height="28" fill="#dfddf9"/><path d="M543.865,398.8973h-46v-46h46Zm-44-2h42v-42h-42Z" transform="translate(-181.865 -112.8973)" fill="#e4e4e4"/><path d="M432.865,779.8973c-84.36426,0-153-68.63574-153-153s68.63574-153,153-153,153,68.63575,153,153S517.22926,779.8973,432.865,779.8973Zm0-304c-83.26172,0-151,67.73828-151,151s67.73828,151,151,151,151-67.73828,151-151S516.12672,475.8973,432.865,475.8973Z" transform="translate(-181.865 -112.8973)" fill="#e4e4e4"/></svg>