<?xml version="1.0" encoding="utf-8"?>
<!-- Generator: Adobe Illustrator 17.0.0, SVG Export Plug-In . SVG Version: 6.00 Build 0)  -->
<!DOCTYPE svg PUBLIC "-//W3C//DTD SVG 1.1//EN" "http://www.w3.org/Graphics/SVG/1.1/DTD/svg11.dtd">
<svg version="1.1" id="Layer_1" xmlns="http://www.w3.org/2000/svg" xmlns:xlink="http://www.w3.org/1999/xlink" x="0px" y="0px"
	 width="300px" height="300px" viewBox="0 0 300 300" enable-background="new 0 0 300 300" xml:space="preserve">
<g>
	<g>
		<path fill="#323232" d="M291.682,69.097c0,16.882,0,33.764,0,50.645c-0.296,1.432-0.545,2.875-0.894,4.295
			c-3.142,12.794-14.461,21.878-27.267,21.906c-13.258,0.029-24.568-8.771-27.738-21.614c-0.352-1.427-0.553-2.891-0.871-4.591
			c-1.684,16.088-14.403,25.663-27.121,26.212c-14.19,0.612-27.92-9.872-29.607-25.759c-0.875,7.186-3.792,13.356-9.142,18.26
			c-5.399,4.949-11.794,7.451-19.128,7.491c-6.016,0.033-11.513-1.681-16.398-5.173c-7.056-5.044-10.938-12.004-12.016-20.589
			c-1.754,15.827-14.907,25.562-27.606,25.763c-7.493,0.118-14.078-2.231-19.665-7.21c-5.592-4.984-8.623-11.316-9.435-19.101
			c-0.338,1.824-0.534,3.281-0.883,4.701c-3.141,12.772-14.44,21.605-27.601,21.608c-12.911,0.003-24.261-9.062-27.406-21.907
			c-0.347-1.418-0.598-2.86-0.893-4.291c0-16.882,0-33.764,0-50.645c1.216-2.648,3.125-3.983,6.195-3.982
			c75.489,0.043,150.979,0.034,226.468,0.034c15.079,0,30.158,0.007,45.237-0.006c2.606-0.002,4.447,1.089,5.457,3.522
			C291.434,68.825,291.576,68.954,291.682,69.097z"/>
		<path fill="#323232" d="M291.682,5.932c0,16.218,0,32.436,0,48.654c-1.056,2.504-2.688,4.103-5.646,4.102
			c-90.409-0.021-180.818-0.029-271.227,0.021c-3.28,0.002-5.612-0.963-6.798-4.124c0-16.218,0-32.436,0-48.654
			c0.809-1.846,2.164-3.147,3.983-3.983c91.807,0,183.613,0,275.42,0C289.464,2.605,290.798,4.028,291.682,5.932z M189.102,35.831
			c1.277,0,2.366,0.061,3.446-0.018c0.979-0.072,1.502,0.248,1.934,1.179c1.931,4.168,3.985,8.28,5.929,12.443
			c0.424,0.908,0.945,1.217,1.935,1.188c2.51-0.073,5.024-0.024,7.536-0.024c1.821,0,3.642,0,5.71,0
			c-3.052-5.787-5.973-11.326-8.918-16.91c0.46-0.219,0.759-0.354,1.053-0.501c4.396-2.214,6.695-5.798,6.673-10.705
			c-0.023-5.047-2.263-8.928-6.953-10.942c-1.987-0.853-4.297-1.271-6.471-1.314c-7.818-0.153-15.64-0.062-23.461-0.059
			c-0.414,0-0.829,0.035-1.303,0.056c0,13.473,0,26.854,0,40.264c4.319,0,8.55,0,12.891,0c0-2.524,0-4.937,0-7.35
			C189.102,40.732,189.102,38.327,189.102,35.831z M148.049,9.217c-2.764,0.292-4.76,0.395-6.717,0.729
			c-8.585,1.465-13.938,6.753-15.434,15.246c-0.647,3.673-0.612,7.365,0.143,11.03c1.524,7.4,5.936,12.135,13.23,14.07
			c5.035,1.336,10.151,1.361,15.215,0.193c7.934-1.831,12.698-6.809,14.168-14.842c0.716-3.914,0.676-7.848-0.227-11.726
			c-1.542-6.625-5.487-11.199-12.059-13.135C153.444,9.921,150.35,9.634,148.049,9.217z M234.857,34.6c6.312,0,12.447,0,18.578,0
			c0-3.121,0-6.087,0-9.218c-6.221,0-12.358,0-18.537,0c0-1.931,0-3.694,0-5.578c7.302,0,14.49,0,21.706,0c0-3.267,0-6.41,0-9.525
			c-11.649,0-23.186,0-34.753,0c0,13.463,0,26.812,0,40.22c11.764,0,23.442,0,35.117,0c0-3.253,0-6.403,0-9.712
			c-7.435,0-14.761,0-22.111,0C234.857,38.7,234.857,36.776,234.857,34.6z M79.105,22.514c0.039-0.352,0.106-0.63,0.096-0.904
			c-0.192-4.955-2.785-8.36-7.214-10.159c-7.159-2.909-14.468-2.867-21.606,0.086c-4.746,1.963-7.163,5.714-7.146,10.934
			c0.017,5.181,2.644,8.646,7.297,10.47c2.891,1.133,5.984,1.753,8.988,2.598c1.956,0.55,3.935,1.027,5.863,1.662
			c0.986,0.325,1.701,1.066,1.622,2.248c-0.083,1.243-0.918,1.884-2.007,2.081c-1.343,0.242-2.723,0.428-4.083,0.405
			c-4.27-0.073-5.122-0.788-6.167-4.84c-0.011-0.042-0.056-0.075-0.12-0.158c-3.925,0-7.885,0-11.926,0
			c-0.022,0.352-0.057,0.624-0.054,0.896c0.066,5.824,3.025,10.096,8.619,11.882c6.274,2.003,12.705,2.202,19.081,0.535
			c6.18-1.615,9.657-6.005,9.972-11.972c0.265-5.035-1.831-8.758-6.433-10.648c-3.213-1.319-6.702-1.967-10.061-2.934
			c-1.994-0.574-4.026-1.07-5.938-1.851c-0.612-0.25-1.26-1.321-1.226-1.982c0.034-0.654,0.779-1.519,1.435-1.853
			c3.928-2,7.736-0.513,9.222,3.504C71.226,22.514,75.145,22.514,79.105,22.514z M123.229,10.219c-13.178,0-26.198,0-39.292,0
			c0,3.429,0,6.802,0,10.312c4.407,0,8.7,0,13.138,0c0,10.061,0,19.986,0,29.981c4.38,0,8.612,0,13.006,0
			c0-10.012,0-19.938,0-30.054c4.483,0,8.808,0,13.148,0C123.229,16.962,123.229,13.659,123.229,10.219z"/>
		<path fill="#323232" d="M121.481,139.009c7.331,9.04,16.656,14.031,28.317,14.046c11.669,0.015,21.004-4.949,28.41-14.043
			c7.311,9.017,16.659,14.042,28.353,14.044c11.669,0.002,21.005-4.968,28.387-14.051c7.588,9.432,17.396,14.214,29.623,14.117
			c0,39.405,0,78.772,0,118.257c-76.452,0-152.937,0-229.489,0c0-39.415,0-78.787,0-118.242
			c12.196,0.126,22.025-4.621,29.669-14.122c7.344,9.064,16.711,14.057,28.42,14.041
			C104.829,153.038,114.145,148.04,121.481,139.009z M151.197,164.133c0,23.905,0,47.641,0,71.476c31.127,0,62.194,0,93.335,0
			c0-23.869,0-47.642,0-71.476C213.403,164.133,182.366,164.133,151.197,164.133z M120.745,259.452c0-32.176,0-64.288,0-96.423
			c-18.94,0-37.783,0-56.637,0c0,32.198,0,64.303,0,96.423C83.039,259.452,101.848,259.452,120.745,259.452z"/>
		<path fill="#323232" d="M189.199,26.782c0-2.536,0-4.923,0-7.377c2.97,0,5.85-0.113,8.716,0.038
			c2.097,0.11,3.396,1.842,3.264,3.898c-0.127,1.982-1.559,3.392-3.623,3.429C194.821,26.819,192.084,26.782,189.199,26.782z"/>
		<path fill="#323232" d="M155.87,30.389c-0.125,1.553-0.096,3.136-0.403,4.652c-0.86,4.249-3.782,6.487-8.222,6.479
			c-4.442-0.009-7.501-2.229-8.098-6.551c-0.422-3.053-0.436-6.264,0.005-9.311c0.638-4.407,4.043-6.728,8.587-6.484
			c4.539,0.244,7.455,2.928,7.902,7.379c0.127,1.264,0.019,2.552,0.019,3.828C155.73,30.384,155.8,30.386,155.87,30.389z"/>
	</g>
	<rect x="8" y="273" fill="#323232" width="285" height="27"/>
</g>
</svg>
